<svg id="Capa_1" enable-background="new 0 0 512 512" height="512" viewBox="0 0 512 512" width="512" xmlns="http://www.w3.org/2000/svg"><g><g><circle cx="256" cy="256" fill="#ffe141" r="225"/></g><g><path d="m256 0c-141.385 0-256 114.615-256 256s114.615 256 256 256 256-114.615 256-256-114.615-256-256-256zm0 462c-113.589 0-206-92.411-206-206s92.411-206 206-206 206 92.411 206 206-92.411 206-206 206z" fill="#e80054"/></g><g><path d="m231 487c0-13.807 11.193-25 25-25-113.589 0-206-92.411-206-206s92.411-206 206-206c-13.807 0-25-11.193-25-25s11.193-25 25-25c-141.385 0-256 114.615-256 256s114.615 256 256 256c-13.807 0-25-11.193-25-25z" fill="#cc0053"/></g><g><g><path d="m213.195 107c0 6.627 5.373 12 12 12 10.386 0 18.805 8.419 18.805 18.805v37.195h24v-37.195c0-23.641-19.164-42.805-42.805-42.805-6.627 0-12 5.373-12 12z" fill="#fe8756"/></g><g><g><path d="m316.162 176h4.838c8.284 0 15-6.716 15-15s-6.716-15-15-15h-130c-8.284 0-15 6.716-15 15s6.716 15 15 15h4.838c-40.363 21.535-67.838 64.056-67.838 113 0 70.692 57.308 128 128 128s128-57.308 128-128c0-48.944-27.475-91.465-67.838-113z" fill="#4d4d79"/></g><g><path d="m261 176h-65.162c-40.363 21.535-67.838 64.056-67.838 113 0 70.692 57.308 128 128 128 8.556 0 16.914-.847 25-2.448-58.723-11.628-103-63.416-103-125.552 0-31.677 11.52-60.653 30.584-83h52.416c8.284 0 15-6.716 15-15s-6.716-15-15-15z" fill="#41416b"/></g></g></g><g><path d="m383.831 419.186-291.017-291.017c-9.763-9.763-9.763-25.592 0-35.355 9.763-9.763 25.592-9.763 35.355 0l291.017 291.017c9.763 9.763 9.763 25.592 0 35.355-9.763 9.763-25.592 9.763-35.355 0z" fill="#ff4155"/></g></g></svg>